<?xml version="1.0" standalone="no"?>
<!DOCTYPE svg PUBLIC "-//W3C//DTD SVG 20010904//EN"
 "http://www.w3.org/TR/2001/REC-SVG-20010904/DTD/svg10.dtd">
<svg version="1.0" xmlns="http://www.w3.org/2000/svg"
 width="64.000000pt" height="64.000000pt" viewBox="0 0 64.000000 64.000000"
 preserveAspectRatio="xMidYMid meet">

<g transform="translate(0.000000,64.000000) scale(0.100000,-0.100000)"
fill="#000000" stroke="none">
<path d="M203 600 c-10 -11 -27 -20 -40 -20 -12 0 -25 -4 -28 -10 -3 -5 -19
-10 -35 -10 -57 0 -60 -10 -60 -245 0 -181 2 -216 16 -229 12 -12 37 -16 110
-16 125 0 122 18 -3 22 l-98 3 0 220 0 220 32 3 c26 3 32 -1 35 -20 3 -22 6
-23 108 -23 102 0 105 1 108 23 3 19 9 23 35 20 l32 -3 3 -87 c4 -113 22 -116
22 -4 0 95 -11 116 -60 116 -16 0 -32 5 -35 10 -3 6 -16 10 -28 10 -13 0 -30
9 -40 20 -9 11 -26 20 -37 20 -11 0 -28 -9 -37 -20z m64 -20 c4 -14 14 -20 34
-20 24 0 29 -4 29 -25 0 -25 -1 -25 -90 -25 -89 0 -90 0 -90 25 0 21 5 25 29
25 20 0 30 6 34 20 3 12 14 20 27 20 13 0 24 -8 27 -20z"/>
<path d="M100 410 l0 -40 40 0 40 0 0 40 0 40 -40 0 -40 0 0 -40z m60 0 c0
-13 -7 -20 -20 -20 -13 0 -20 7 -20 20 0 13 7 20 20 20 13 0 20 -7 20 -20z"/>
<path d="M210 440 c0 -6 35 -10 85 -10 50 0 85 4 85 10 0 6 -35 10 -85 10 -50
0 -85 -4 -85 -10z"/>
<path d="M210 380 c0 -5 25 -10 55 -10 30 0 55 5 55 10 0 6 -25 10 -55 10 -30
0 -55 -4 -55 -10z"/>
<path d="M421 327 c-17 -17 -13 -38 11 -64 l22 -24 -37 -36 -36 -37 -24 22
c-26 25 -50 28 -65 10 -12 -15 -11 -153 1 -165 12 -12 150 -13 165 -1 18 15
15 39 -10 65 l-22 24 37 36 36 37 24 -22 c26 -25 50 -28 65 -9 12 14 11 152
-1 164 -13 12 -153 13 -166 0z m99 -72 c51 -51 62 -67 52 -77 -10 -10 -26 1
-78 54 -38 37 -64 71 -60 77 12 18 19 14 86 -54z m30 30 c18 -19 30 -38 27
-42 -8 -7 -77 55 -77 69 0 16 17 7 50 -27z m25 25 c3 -5 1 -10 -4 -10 -6 0
-11 5 -11 10 0 6 2 10 4 10 3 0 8 -4 11 -10z m-95 -98 c0 -14 -69 -76 -77 -69
-3 4 9 23 27 42 33 34 50 43 50 27z m-90 -87 c51 -51 62 -67 52 -77 -10 -10
-26 1 -78 54 -38 37 -64 71 -60 77 12 18 19 14 86 -54z m-40 -40 c18 -19 30
-38 27 -42 -8 -7 -77 55 -77 69 0 16 17 7 50 -27z m-30 -35 c0 -5 -2 -10 -4
-10 -3 0 -8 5 -11 10 -3 6 -1 10 4 10 6 0 11 -4 11 -10z"/>
<path d="M100 290 l0 -40 40 0 40 0 0 40 0 40 -40 0 -40 0 0 -40z m60 0 c0
-13 -7 -20 -20 -20 -13 0 -20 7 -20 20 0 13 7 20 20 20 13 0 20 -7 20 -20z"/>
<path d="M210 320 c0 -6 35 -10 85 -10 50 0 85 4 85 10 0 6 -35 10 -85 10 -50
0 -85 -4 -85 -10z"/>
<path d="M210 260 c0 -5 25 -10 55 -10 30 0 55 5 55 10 0 6 -25 10 -55 10 -30
0 -55 -4 -55 -10z"/>
<path d="M100 170 l0 -40 40 0 40 0 0 40 0 40 -40 0 -40 0 0 -40z m60 0 c0
-13 -7 -20 -20 -20 -13 0 -20 7 -20 20 0 13 7 20 20 20 13 0 20 -7 20 -20z"/>
<path d="M210 200 c0 -5 11 -10 25 -10 14 0 25 5 25 10 0 6 -11 10 -25 10 -14
0 -25 -4 -25 -10z"/>
<path d="M210 140 c0 -5 11 -10 25 -10 14 0 25 5 25 10 0 6 -11 10 -25 10 -14
0 -25 -4 -25 -10z"/>
</g>
</svg>
