<?xml version="1.0" standalone="no"?>
<!DOCTYPE svg PUBLIC "-//W3C//DTD SVG 20010904//EN"
 "http://www.w3.org/TR/2001/REC-SVG-20010904/DTD/svg10.dtd">
<svg version="1.0" xmlns="http://www.w3.org/2000/svg"
 width="64.000000pt" height="64.000000pt" viewBox="0 0 64.000000 64.000000"
 preserveAspectRatio="xMidYMid meet">

<g transform="translate(0.000000,64.000000) scale(0.100000,-0.100000)"
fill="#000000" stroke="none">
<path d="M268 584 c-30 -16 -58 -61 -58 -94 0 -53 57 -110 110 -110 53 0 110
57 110 110 0 34 -28 78 -60 95 -36 19 -67 19 -102 -1z m99 -46 c29 -27 29 -65
1 -95 -27 -29 -65 -29 -95 -1 -29 27 -29 65 -1 95 27 29 65 29 95 1z"/>
<path d="M55 495 c-14 -13 -25 -33 -25 -45 0 -27 43 -70 70 -70 27 0 70 43 70
70 0 27 -43 70 -70 70 -11 0 -32 -11 -45 -25z m70 -45 c0 -18 -6 -26 -23 -28
-13 -2 -25 3 -28 12 -10 26 4 48 28 44 17 -2 23 -10 23 -28z"/>
<path d="M495 495 c-14 -13 -25 -33 -25 -45 0 -27 43 -70 70 -70 12 0 32 11
45 25 32 31 32 59 0 90 -13 14 -33 25 -45 25 -11 0 -32 -11 -45 -25z m70 -45
c0 -18 -6 -26 -23 -28 -13 -2 -25 3 -28 12 -10 26 4 48 28 44 17 -2 23 -10 23
-28z"/>
<path d="M29 311 c-28 -28 -29 -33 -29 -118 0 -56 4 -93 12 -101 7 -7 39 -12
73 -12 48 0 64 -4 78 -20 15 -18 29 -20 157 -20 128 0 142 2 157 20 14 16 30
20 78 20 34 0 66 5 73 12 8 8 12 45 12 101 0 85 -1 90 -29 118 -38 38 -97 40
-138 5 l-27 -24 -29 22 c-41 30 -153 30 -194 0 l-29 -22 -27 24 c-41 35 -100
33 -138 -5z m120 -25 c7 -9 9 -39 5 -90 l-7 -76 -53 0 -54 0 0 78 c0 47 5 83
12 90 16 16 83 15 97 -2z m269 -19 c24 -24 27 -36 30 -107 l4 -80 -132 0 -132
0 3 79 c6 114 36 143 142 138 47 -3 63 -8 85 -30z m170 21 c7 -7 12 -43 12
-90 l0 -78 -54 0 -53 0 -7 76 c-4 51 -2 81 5 90 14 17 81 18 97 2z"/>
</g>
</svg>
