<?xml version="1.0" standalone="no"?>
<!DOCTYPE svg PUBLIC "-//W3C//DTD SVG 20010904//EN"
 "http://www.w3.org/TR/2001/REC-SVG-20010904/DTD/svg10.dtd">
<svg version="1.0" xmlns="http://www.w3.org/2000/svg"
 width="64.000000pt" height="64.000000pt" viewBox="0 0 64.000000 64.000000"
 preserveAspectRatio="xMidYMid meet">

<g transform="translate(0.000000,64.000000) scale(0.100000,-0.100000)"
fill="#000000" stroke="none">
<path d="M270 615 c-48 -51 -15 -145 50 -145 37 0 74 42 74 85 0 43 -37 85
-74 85 -15 0 -36 -11 -50 -25z m90 -15 c39 -39 14 -110 -40 -110 -33 0 -60 31
-60 67 0 28 33 63 60 63 11 0 29 -9 40 -20z"/>
<path d="M4 576 c-3 -8 -4 -31 -2 -52 4 -46 32 -60 47 -22 8 19 10 16 10 -23
1 -64 18 -82 88 -94 l58 -10 5 -90 5 -90 105 0 105 0 5 90 5 90 58 10 c69 12
86 30 88 94 1 25 4 36 6 23 3 -17 10 -22 26 -20 19 3 22 9 22 53 0 39 -4 50
-17 53 -12 2 -21 -6 -28 -23 -9 -23 -13 -25 -25 -15 -12 10 -22 10 -40 2 -21
-10 -24 -8 -27 11 -2 14 -10 22 -23 22 -17 0 -20 -8 -23 -53 -3 -51 -2 -53 20
-50 14 2 25 12 29 28 6 22 7 20 8 -11 l1 -36 -67 4 c-60 5 -70 3 -87 -16 -24
-26 -48 -27 -71 -1 -19 21 -55 27 -55 10 0 -5 5 -10 11 -10 6 0 22 -9 36 -20
14 -11 33 -20 43 -20 10 0 29 9 43 20 16 13 40 20 66 20 39 0 41 -2 41 -29 0
-25 -4 -30 -27 -33 -28 -3 -28 -4 -33 -93 l-5 -90 -85 0 -85 0 -5 90 c-5 89
-5 90 -32 93 -24 3 -28 8 -28 33 0 22 5 29 20 29 11 0 20 5 20 11 0 8 -13 9
-40 5 l-40 -6 1 37 c1 32 2 34 8 13 4 -16 15 -26 29 -28 22 -3 23 -1 20 50 -3
45 -6 53 -23 53 -13 0 -21 -8 -23 -22 -3 -19 -6 -21 -27 -11 -18 8 -28 8 -40
-2 -12 -10 -16 -8 -25 14 -10 28 -37 35 -46 12z m36 -47 c0 -16 -4 -29 -10
-29 -5 0 -10 16 -10 36 0 21 4 33 10 29 6 -3 10 -19 10 -36z m140 6 c0 -19 -4
-35 -10 -35 -5 0 -10 16 -10 35 0 19 5 35 10 35 6 0 10 -16 10 -35z m300 0 c0
-19 -4 -35 -10 -35 -5 0 -10 16 -10 35 0 19 5 35 10 35 6 0 10 -16 10 -35z
m140 0 c0 -19 -4 -35 -10 -35 -11 0 -14 53 -3 63 11 12 13 8 13 -28z m-510
-45 c0 -43 3 -50 20 -50 11 0 20 -7 20 -15 0 -18 -41 -20 -58 -3 -18 18 -16
118 3 118 11 0 15 -12 15 -50z m448 -4 c2 -26 -2 -54 -9 -62 -16 -19 -59 -18
-59 1 0 8 9 15 20 15 17 0 20 7 20 51 0 66 24 62 28 -5z"/>
<path d="M218 164 c-11 -17 -29 -136 -24 -151 4 -10 19 -13 53 -11 39 2 50 7
58 26 5 12 12 22 15 22 3 0 10 -10 15 -22 8 -18 20 -24 54 -26 24 -2 48 1 53
6 12 12 -9 149 -24 158 -8 5 -9 -6 -5 -32 4 -21 10 -56 13 -77 l7 -37 -40 0
c-38 0 -40 2 -52 40 -6 22 -16 40 -21 40 -5 0 -15 -18 -21 -40 -11 -38 -14
-40 -51 -40 -43 0 -44 2 -27 80 10 49 9 84 -3 64z"/>
</g>
</svg>
